<?xml version="1.0" ?>
<!DOCTYPE svg  PUBLIC '-//W3C//DTD SVG 1.1//EN'  'http://www.w3.org/Graphics/SVG/1.1/DTD/svg11.dtd'>
<svg version="1.1" xmlns="http://www.w3.org/2000/svg" xmlns:xlink="http://www.w3.org/1999/xlink" viewBox="0 0 400 400" xml:space="preserve">
  <title>icon_google</title>
  <g>
    <rect fill="#fff" id="canvas_background" height="400" width="400" />
  </g>
  <g>
    <path fill="#FFFFFF" d="m152.378134,53.718895c-38.591604,12.956327 -71.475399,41.293068 -89.791502,77.152838c-6.389338,12.371203 -10.989662,25.494708 -13.800971,39.119749c-6.985677,33.77004 -2.129779,69.796988 13.71578,100.557816c10.308133,20.06141 25.131398,37.9495 43.021545,51.908898c16.953044,13.207095 36.632207,23.070621 57.589237,28.50392c26.409265,6.937904 54.522354,6.770726 81.102002,0.835892c24.023912,-5.433298 46.769957,-16.717841 64.915678,-33.101326c19.168015,-17.302966 32.883795,-40.03923 40.125045,-64.530868c7.92278,-26.664957 8.945074,-55.168877 4.003985,-82.586137c-49.666457,0 -99.418105,0 -149.084562,0c0,20.228588 0,40.457176 0,60.685764c28.794618,0 57.589237,0 86.383855,0c-3.322456,19.392696 -15.078839,37.113608 -31.691118,48.063794c-10.478515,6.937904 -22.490471,11.368132 -34.928383,13.541452c-12.437912,2.08973 -25.386971,2.340498 -37.824883,-0.083589c-12.693486,-2.507676 -24.705442,-7.690207 -35.269148,-14.962468c-16.867853,-11.6189 -29.731721,-28.587509 -36.291442,-47.729437c-6.730103,-19.476285 -6.815294,-41.12589 0,-60.518586c4.770706,-13.70863 12.608294,-26.3306 23.001618,-36.695662c12.778677,-12.872738 29.390957,-22.067551 47.366295,-25.829065c15.334412,-3.17639 31.520736,-2.591265 46.514383,1.838963c12.778677,3.761514 24.535059,10.699419 34.161663,19.727053c9.711794,-9.52917 19.423589,-19.058339 29.135383,-28.587509c5.111471,-5.098942 10.478515,-10.030705 15.419603,-15.296825c-14.738074,-13.374273 -32.117074,-24.157281 -51.029516,-31.011596c-34.076471,-12.371203 -72.412502,-12.62197 -106.744547,-1.00307z" />
    <g stroke="null" id="svg_3">
      <path stroke="null" id="svg_4" fill="#EA4335" d="m152.378134,53.718895c34.246854,-11.6189 72.668075,-11.368132 106.744547,0.919481c18.912442,6.854315 36.206251,17.553733 51.029516,31.011596c-4.941088,5.26612 -10.308133,10.197883 -15.419603,15.296825c-9.711794,9.52917 -19.423589,19.058339 -29.135383,28.587509c-9.626603,-9.027634 -21.382986,-15.881949 -34.161663,-19.727053c-14.993647,-4.430228 -31.179971,-5.098942 -46.514383,-1.838963c-17.890147,3.761514 -34.502427,12.956327 -47.366295,25.829065c-10.393324,10.281472 -18.230912,22.987032 -23.001618,36.695662c-17.293809,-13.207095 -34.587618,-26.3306 -51.966619,-39.537695c18.316103,-35.943359 51.199898,-64.2801 89.791502,-77.236427z" />
    </g>
    <g>
      <path fill="#FBBC05" d="m48.870852,169.907892c2.811309,-13.541452 7.411633,-26.748546 13.800971,-39.119749c17.293809,13.207095 34.587618,26.3306 51.966619,39.537695c-6.815294,19.476285 -6.815294,41.12589 0,60.518586c-17.293809,13.207095 -34.587618,26.414189 -51.881428,39.537695c-16.015942,-30.677239 -20.871839,-66.704187 -13.886162,-100.474227z" />
    </g>
    <g>
      <path fill="#4285F4" d="m204.174371,171.496087c49.666457,0 99.418105,0 149.084562,0c4.941088,27.333671 3.833603,55.83759 -4.003985,82.586137c-7.24125,24.491638 -20.95703,47.227902 -40.125045,64.530868c-16.782662,-12.789149 -33.565324,-25.578297 -50.347986,-38.367446c16.61228,-10.950186 28.368662,-28.671098 31.691118,-48.063794c-28.794618,0 -57.589237,0 -86.383855,0c0.085191,-20.228588 0.085191,-40.457176 0.085191,-60.685764z" />
    </g>
    <g>
      <path fill="#34A853" d="m62.586632,270.465709c17.293809,-13.123506 34.587618,-26.3306 51.881428,-39.537695c6.644912,19.141928 19.423589,36.110537 36.291442,47.729437c10.563706,7.272261 22.660853,12.454792 35.269148,14.962468c12.437912,2.507676 25.30178,2.173319 37.824883,0.083589c12.437912,-2.173319 24.449868,-6.603547 34.928383,-13.541452c16.782662,12.789149 33.565324,25.578297 50.347986,38.367446c-18.145721,16.467074 -40.891766,27.668028 -64.915678,33.101326c-26.579648,5.934834 -54.692737,6.102012 -81.102002,-0.835892c-20.95703,-5.433298 -40.636192,-15.213236 -57.589237,-28.50392c-17.804956,-13.875808 -32.628221,-31.763899 -42.936354,-51.825308z" />
    </g>
  </g>
</svg>
