<?xml version="1.0" ?>
<!DOCTYPE svg  PUBLIC '-//W3C//DTD SVG 1.1//EN'  'http://www.w3.org/Graphics/SVG/1.1/DTD/svg11.dtd'>
<svg version="1.1" xmlns="http://www.w3.org/2000/svg" xmlns:xlink="http://www.w3.org/1999/xlink" x="0" y="0" viewBox="0 0 768 768" xml:space="preserve">
  <title>icon_linkedin</title>
  <g>
    <rect fill="#fff" id="canvas_background" height="768" width="768" />
  </g>
  <path fill="#007bb5" d="m537.891015,623.859504l0,-194.156c0,0 -5.75,-51.938 -56,-51.938c-50.219,0 -59.406,49.375 -59.406,49.375l0,196.719l-103.5,0l1.688,-320.719l100.125,0l-0.813,40.313c0,0 20.876,-52.688 99.531,-52.688c78.625,0 114.25,45.188 120.875,129.688c0,84.531 0,203.406 0,203.406l-102.5,0zm-345.844,-366.281c-35.563,0 -64.438,-25.438 -64.438,-56.875s28.875,-56.938 64.438,-56.938s64.438,25.5 64.438,56.938s-28.876,56.875 -64.438,56.875zm63.875,366.656l-127.25,0l0,-320.281l127.25,-0.813l0,321.094z"/>
</svg>
